Coordinates
version=1
nRows=13
nColumns=63
inDegrees=yes

Units are S.I. units (second, meters, Newtons, ...)
If the header above contains a line with 'inDegrees', this indicates whether rotational values are in degrees (yes) or radians (no).

endheader
time	pelvis_tilt	pelvis_list	pelvis_rotation	pelvis_tx	pelvis_ty	pelvis_tz	hip_flexion_r	hip_adduction_r	hip_rotation_r	knee_angle_r	knee_angle_r_beta	ankle_angle_r	subtalar_angle_r	mtp_angle_r	hip_flexion_l	hip_adduction_l	hip_rotation_l	knee_angle_l	knee_angle_l_beta	ankle_angle_l	subtalar_angle_l	mtp_angle_l	L5_S1_Flex_Ext	L5_S1_Lat_Bending	L5_S1_axial_rotation	L4_L5_Flex_Ext	L4_L5_Lat_Bending	L4_L5_axial_rotation	L3_L4_Flex_Ext	L3_L4_Lat_Bending	L3_L4_axial_rotation	L2_L3_Flex_Ext	L2_L3_Lat_Bending	L2_L3_axial_rotation	L1_L2_Flex_Ext	L1_L2_Lat_Bending	L1_L2_axial_rotation	L1_T12_Flex_Ext	L1_T12_Lat_Bending	L1_T12_axial_rotation	Abs_r3	Abs_r2	Abs_r1	Abs_t1	Abs_t2	neck_flexion	neck_bending	neck_rotation	arm_flex_r	arm_add_r	arm_rot_r	elbow_flex_r	pro_sup_r	wrist_flex_r	wrist_dev_r	arm_flex_l	arm_add_l	arm_rot_l	elbow_flex_l	pro_sup_l	wrist_flex_l	wrist_dev_l
1.466667	1.644474	-6.533753	87.384575	0.130555	0.771591	0.639963	-2.223337	-2.361274	-5.030328	7.198539	0.125638	32.949634	15.792991	0.000000	-2.513952	0.561083	-4.062330	3.952589	0.068986	29.742764	3.860050	0.000000	0.253395	-0.416734	0.430020	0.470581	-0.554256	0.456896	0.416303	-1.013246	0.456896	0.289606	-1.013246	0.376267	0.235303	-0.849803	0.349391	0.144790	-0.645520	0.322515	1.809978	-4.714173	2.391640	0.000000	0.000000	28.014597	-6.784753	-3.273804	6.353761	-4.657140	53.827866	38.095276	50.104407	3.880568	14.031710	9.325456	-8.635941	49.564510	44.885705	77.324546	12.183811	17.494217
1.483333	1.684389	-6.557769	87.336479	0.130564	0.771646	0.640127	-2.217120	-2.303833	-4.696570	7.093071	0.123797	32.917879	15.562289	0.000000	-2.434373	0.509400	-4.580874	4.083338	0.071268	29.837865	4.342745	0.000000	0.266572	-0.410921	0.451739	0.495051	-0.546525	0.479973	0.437951	-0.999114	0.479973	0.304665	-0.999114	0.395272	0.247539	-0.837950	0.367038	0.152319	-0.636517	0.338804	1.904096	-4.648422	2.512437	0.000000	0.000000	28.057254	-7.148823	-3.927921	6.319360	-4.729758	54.025938	38.021323	49.414429	3.537506	13.948970	9.590216	-8.568596	50.387900	44.510524	76.494037	11.813843	16.895518
1.500000	1.719752	-6.606926	87.306214	0.130514	0.771645	0.640417	-2.184160	-2.251414	-4.366265	6.971743	0.121680	32.888049	15.289826	0.000000	-2.296402	0.454264	-5.185691	4.259608	0.074344	29.996597	4.954239	0.000000	0.280752	-0.405574	0.466486	0.521385	-0.539414	0.495642	0.461248	-0.986113	0.495642	0.320872	-0.986113	0.408176	0.260706	-0.827047	0.379020	0.160422	-0.628234	0.349865	2.005384	-4.587937	2.594458	0.000000	0.000000	28.104837	-7.518386	-4.562840	6.308069	-4.813778	54.275848	37.961213	48.625245	3.203056	13.782884	9.898370	-8.495121	51.316223	44.095195	75.432826	11.520221	16.356707
1.516667	1.749290	-6.695630	87.339062	0.130366	0.771577	0.640858	-2.110217	-2.203339	-4.076378	6.841263	0.119403	32.847787	14.943132	0.000000	-2.084526	0.400414	-5.756954	4.463572	0.077904	30.193576	5.613266	0.000000	0.296966	-0.401136	0.470180	0.551496	-0.533511	0.499567	0.487886	-0.975322	0.499567	0.339403	-0.975322	0.411408	0.275763	-0.817996	0.382022	0.169686	-0.621359	0.352635	2.121200	-4.537728	2.615002	0.000000	0.000000	28.155353	-7.912156	-5.201566	6.294626	-4.893302	54.460275	37.910659	47.908636	2.940400	13.528484	10.260017	-8.408863	52.362823	43.632861	74.167398	11.331113	15.856777
1.533333	1.761870	-6.824741	87.411221	0.130169	0.771448	0.641458	-1.986832	-2.171837	-3.818171	6.711182	0.117132	32.805413	14.541990	0.000000	-1.794390	0.352861	-6.383468	4.706597	0.082146	30.437959	6.410353	0.000000	0.314974	-0.398853	0.467166	0.584939	-0.530475	0.496364	0.517471	-0.969772	0.496364	0.359984	-0.969772	0.408771	0.292485	-0.813341	0.379573	0.179976	-0.617824	0.350375	2.249831	-4.511907	2.598239	0.000000	0.000000	28.205684	-8.311990	-5.836159	6.290173	-4.966577	54.622744	37.885203	47.018080	2.690533	13.229676	10.650643	-8.333456	53.464249	43.191241	72.754343	11.113716	15.487759
1.550000	1.766575	-7.006594	87.529638	0.129927	0.771246	0.642236	-1.785048	-2.152027	-3.682695	6.618979	0.115523	32.773859	14.177425	0.000000	-1.409005	0.302482	-6.991663	4.998163	0.087234	30.721511	7.242472	0.000000	0.336137	-0.397423	0.453502	0.624241	-0.528572	0.481846	0.552240	-0.966294	0.481846	0.384171	-0.966294	0.396814	0.312137	-0.810425	0.368470	0.192069	-0.615608	0.340127	2.400995	-4.495727	2.522243	0.000000	0.000000	28.253006	-8.705218	-6.448424	6.301062	-5.025820	54.732565	37.874226	46.230579	2.483255	12.902501	11.039602	-8.247311	54.477990	42.762046	71.376093	10.985413	15.222699
1.566667	1.754831	-7.209094	87.665248	0.129697	0.771021	0.643152	-1.556016	-2.140853	-3.534116	6.524126	0.113867	32.724523	13.725789	0.000000	-0.988354	0.266124	-7.527372	5.291668	0.092357	30.975614	8.011769	0.000000	0.354909	-0.397781	0.444144	0.659102	-0.529049	0.471903	0.583080	-0.967165	0.471903	0.405626	-0.967165	0.388626	0.329569	-0.811155	0.360867	0.202795	-0.616163	0.333108	2.535080	-4.499778	2.470194	0.000000	0.000000	28.292684	-9.124944	-7.082269	6.283008	-5.066677	54.640959	37.875049	45.509986	2.374060	12.564862	11.505201	-8.167334	55.642040	42.348978	69.745521	10.827857	15.086832
1.583333	1.735387	-7.445914	87.835544	0.129458	0.770756	0.644221	-1.266046	-2.141761	-3.509972	6.477802	0.113059	32.690776	13.347218	0.000000	-0.502387	0.221986	-8.107556	5.630642	0.098273	31.228714	8.873728	0.000000	0.373858	-0.398330	0.421793	0.694292	-0.529779	0.448155	0.614212	-0.968500	0.448155	0.427283	-0.968500	0.369069	0.347165	-0.812275	0.342707	0.213623	-0.617013	0.316345	2.670433	-4.505990	2.345885	0.000000	0.000000	28.321982	-9.478065	-7.600740	6.294297	-5.093654	54.542656	37.884641	44.746926	2.255272	12.262773	11.942155	-8.097209	56.668771	42.002876	68.274303	10.670442	15.107704
1.600000	1.715744	-7.712288	88.025830	0.129227	0.770457	0.645436	-0.914319	-2.145215	-3.579451	6.491325	0.113295	32.674384	13.027137	0.000000	0.035864	0.165900	-8.677241	6.006695	0.104837	31.456883	9.736252	0.000000	0.392589	-0.397769	0.386304	0.729077	-0.529033	0.410448	0.644984	-0.967136	0.410448	0.448690	-0.967136	0.338016	0.364558	-0.811131	0.313872	0.224325	-0.616144	0.289728	2.804224	-4.499644	2.148507	0.000000	0.000000	28.340206	-9.739836	-7.956947	6.343608	-5.110357	54.443672	37.887022	44.048507	2.146529	12.036870	12.332066	-8.036572	57.530754	41.716676	66.993671	10.554426	15.251127
1.616667	1.705001	-8.003106	88.235328	0.128991	0.770138	0.646803	-0.500072	-2.148907	-3.805745	6.580550	0.114852	32.682532	12.849719	0.000000	0.621985	0.090118	-9.217188	6.426267	0.112160	31.645266	10.549746	0.000000	0.410538	-0.395060	0.334613	0.762411	-0.525429	0.355527	0.674473	-0.960548	0.355527	0.469204	-0.960548	0.292787	0.381226	-0.805605	0.271873	0.234582	-0.611947	0.250960	2.932434	-4.468992	1.861019	0.000000	0.000000	28.349422	-9.904323	-8.153696	6.468485	-5.132998	54.503894	37.880157	43.120355	1.963546	11.894611	12.640927	-7.984064	58.161974	41.497931	66.039759	10.471908	15.461322
1.633333	1.709150	-8.309174	88.457518	0.128772	0.769808	0.648249	-0.046408	-2.139897	-4.109247	6.722628	0.117332	32.694732	12.736393	0.000000	1.226144	-0.002728	-9.701018	6.856322	0.119665	31.775356	11.286416	0.000000	0.428328	-0.389537	0.265442	0.795447	-0.518084	0.282033	0.703699	-0.947120	0.282033	0.489536	-0.947120	0.232262	0.397745	-0.794343	0.215672	0.244746	-0.603392	0.199082	3.059501	-4.406518	1.476311	0.000000	0.000000	28.353969	-9.939283	-8.135825	6.660116	-5.153776	54.713641	37.837903	42.242717	1.751694	11.862800	12.840390	-7.957627	58.554276	41.363175	65.313437	10.390354	15.720772
1.650000	1.734692	-8.624119	88.716372	0.128543	0.769487	0.649761	0.434555	-2.114860	-4.542000	6.916949	0.120724	32.700349	12.723439	0.000000	1.845455	-0.119272	-10.129621	7.301984	0.127444	31.847861	11.974758	0.000000	0.445035	-0.381219	0.184855	0.826475	-0.507021	0.196409	0.731148	-0.926895	0.196409	0.508631	-0.926895	0.161748	0.413260	-0.777381	0.150195	0.254293	-0.590508	0.138641	3.178841	-4.312421	1.028108	0.000000	0.000000	28.358922	-9.897787	-8.000545	6.882873	-5.176977	55.026171	37.762771	41.271826	1.476838	11.875878	12.983361	-7.953222	58.852576	41.282944	64.851249	10.289412	15.892835
1.666667	1.781245	-8.950886	88.977179	0.128333	0.769165	0.651254	0.948577	-2.079229	-5.112323	7.172654	0.125186	32.716588	12.868352	0.000000	2.464745	-0.247375	-10.427693	7.736849	0.135033	31.849973	12.475551	0.000000	0.463865	-0.369743	0.091866	0.861445	-0.491759	0.097608	0.762085	-0.898994	0.097608	0.530152	-0.898994	0.080383	0.430745	-0.753981	0.074641	0.265053	-0.572732	0.068899	3.313345	-4.182610	0.510931	0.000000	0.000000	28.365662	-9.734082	-7.692809	7.143253	-5.211233	55.507573	37.639414	40.299870	1.180989	11.956794	12.978772	-7.964816	58.823990	41.276950	64.767446	10.235222	15.884374
